<svg width="629" height="900" viewBox="0 0 629 900" fill="none" xmlns="http://www.w3.org/2000/svg">
<path d="M215.261 898H46.446C46.446 898 1.00781 892.497 1.00781 840.96V68.8228C1.00781 68.8228 3 50.5 14.9999 42.5C23.0229 37.1513 30.9999 36 44.5 36C58.0001 36 62.8686 38.6968 72.5 45.5C82.1314 52.3032 94.0931 63.4148 94.0931 63.4148H627.5V874.984H472.235V898H215.261Z" fill="#F1F1F1"/>
<path d="M1.00781 840.96C1.00781 892.497 46.446 898 46.446 898H215.261H472.235V874.984H627.5M1.00781 840.96C1.00781 789.423 56.5433 840.96 56.5433 840.96C56.5433 840.96 89.3808 825.627 94.0931 874.984M1.00781 840.96V68.8228C1.00781 68.8228 3 50.5 14.9999 42.5C23.0229 37.1513 30.9999 36 44.5 36C58.0001 36 62.8686 38.6968 72.5 45.5C82.1314 52.3032 94.0931 63.4148 94.0931 63.4148M94.0931 874.984H627.5M94.0931 874.984V63.4148M627.5 874.984V63.4148H94.0931" stroke="black" stroke-width="2"/>
<path d="M44.9621 898.109C57.896 900.114 300.718 898.109 300.718 898.109L477.527 898.109L477.527 893.985H483.704V888.446H490.323V881.5H496.5V875.534L396.027 875.534H94.4897C91 839.414 80.4159 824.909 53.5 813.328C33.7811 804.843 16.1782 811.985 10.5 816.5C4.82177 821.015 1.78763 826.403 1.1128 839.414C-0.0367326 861.579 7.73747 876.032 18.1477 885.066C28.558 894.1 32.0281 896.103 44.9621 898.109Z" fill="#D4D4D4" stroke="black" stroke-width="2"/>
<path d="M1 840.532C1 861.039 10.7895 874.153 24.3684 884.076C37.9474 894 65.4919 894 65.4919 894H124.241H182.991H300.048H483.528V888.503H490V881.507H134.843C134.843 881.507 113.64 881.507 65.4919 881.507C17.3439 881.507 6.30071 852.025 3.65035 840.532C1 829.039 2.89474 829 2.89474 829" stroke="black" stroke-width="2"/>
<rect x="284" y="888" width="3" height="5" fill="#D4D4D4"/>
<path d="M1 835C1 855.338 13.1994 869.617 24.6662 878C36.1329 886.383 66.5026 888 66.5026 888H305.632H489.821V881.5H496V875.617H137.389" stroke="black" stroke-width="2"/>
</svg>
